# xmcd
#
# Track frame offsets: 
#        150
#        31482
#        53931
#        75568
#        106003
#        126349
#        157896
#        183903
#        211637
#        232709
#        252866
#        269871
#        291493
#        311483
#        336326
#
# Disc length: 4791 seconds
#
# Revision: 0
# Processed by: cddbd v1.5.2PL0 Copyright (c) Steve Scherf et al.
# Submitted via: ExactAudioCopy v0.95a5
#
DISCID=ce12b50f
DTITLE=Various Artist - Akella Presents - Bluesw Rock - vol.12  CD2
DYEAR=2010
DGENRE=Blues
TTITLE0=Diablo Canyon - OUTLAWS
TTITLE1=Silence In the Valey - SNOWY WHITE
TTITLE2=Ego Trippe - CRAIG ERICKSONr
TTITLE3=Obsession - INNES SIBUN
TTITLE4=Company Graveyard - The BUDDAH HEADS
TTITLE5=Truth Never Lies -  BLINDSIDE BLUES BAND
TTITLE6=I'm the Man - GLENN HUGHES
TTITLE7=Look Me Up - PAT TRAVERS
TTITLE8=Cold Side of Cool - VAN WILKS
TTITLE9=Exotic Dancer Blues - SOUTHERN GENTLEMEN
TTITLE10=20 Years - JON BUTCHER
TTITLE11=Man's World - DAVE MENIKETTI
TTITLE12=Rockin' Horse Ride  - The GALES BROS.
TTITLE13=Lay Me Down - DAVE MENIKETTI
TTITLE14=Buncha Loud Boogie - MICHAEL KATON
EXTD=
EXTT0=
EXTT1=
EXTT2=
EXTT3=
EXTT4=
EXTT5=
EXTT6=
EXTT7=
EXTT8=
EXTT9=
EXTT10=
EXTT11=
EXTT12=
EXTT13=
EXTT14=
PLAYORDER=
